<svg id="Layer_1" height="512" viewBox="0 0 128 128" width="512" xmlns="http://www.w3.org/2000/svg" data-name="Layer 1"><path d="m122.54 27.713-30.59-22.62a1.75 1.75 0 0 0 -2.79 1.407v10.7c-35.96 2.853-51.127 20.705-57.517 35.3-8.546 19.515-5.1 42.4 3 52.411a1.751 1.751 0 0 0 3.081-1.424c-2.613-13.9.149-27.033 7.986-37.987 9.2-12.863 24.961-21.918 43.454-25.036v11.286a1.75 1.75 0 0 0 2.791 1.407l30.59-22.63a1.75 1.75 0 0 0 0-2.814zm-29.88 20.565v-9.858a1.749 1.749 0 0 0 -2-1.732c-20.294 2.92-37.717 12.68-47.8 26.775a50.877 50.877 0 0 0 -9.573 31.644c-3.808-10.3-4.933-26.368 1.563-41.2 6.1-13.925 20.793-31.011 56.175-33.328a1.75 1.75 0 0 0 1.635-1.749v-8.859l25.9 19.15z"/><path d="m103.81 51.65a1.75 1.75 0 0 0 -1.75 1.75v66.35h-93.81v-93.81h37.55a1.75 1.75 0 0 0 0-3.5h-39.3a1.751 1.751 0 0 0 -1.75 1.75v97.31a1.751 1.751 0 0 0 1.75 1.75h97.31a1.751 1.751 0 0 0 1.75-1.75v-68.1a1.751 1.751 0 0 0 -1.75-1.75z"/></svg>